<svg xmlns="http://www.w3.org/2000/svg" version="1.1" viewBox="0 0 200 100" width="2000" height="1000"><rect id="Hintergrund" width="200" fill="#e30613" height="100"/><g id="Wortmarke" transform="translate(0, 0.059499999999999886), scale(1)"><path id="G" d="M169.14,21.87h20.77V33.29a6.33,6.33,0,0,1-4.49,6c-3,.84-6,.65-9.34.65H162.2c-4.6.06-8.52.4-10.9-1.25a6.51,6.51,0,0,1-2.93-5.39V16.69c0-2.31,1.27-4,3-5.37,2.06-1.7,6.34-1.27,10.87-1.27h13.88c5.47,0,9.08,0,11.1,1.45C190.26,13.7,190,18,190,18H176.05c-.44-2.16-1.67-2.72-4.49-2.72H167.1c-3.06,0-4.2,1-4.18,2.82V31.36c0,1.59.23,2.29,1.47,2.89,1,.49,2.63.41,4.53.41h3.53c3.34,0,3.63-1.82,3.63-3.81V27.31h-6.94V21.87" fill="#ffed00"/><path id="R" d="M114.39,15.33h6.29c2,0,3.52-.16,4.88.47A2.48,2.48,0,0,1,127,18.59a2.58,2.58,0,0,1-1.43,2.82c-1.45.63-2.5.46-4.88.46h-6.29V15.33ZM99.84,39.93V10.05h27.49c3.17,0,6.76-.26,9.34.94,2.92,1.37,4.51,2.94,4.51,6.22l0,.8c0,2.56-1.07,3.89-3.21,5.26s-4.71,1.57-9.69,1.57h6a11,11,0,0,1,4.87,1,4.11,4.11,0,0,1,2.07,3.32V39.93H126.62V30.47c0-.91.07-2.39-1.22-2.8s-2.29-.31-4.54-.36h-6.47V39.93H99.84" fill-rule="evenodd" fill="#ffed00"/><path id="L" d="M59.76,39.93V10.05H74.31V32h19v8H59.76" fill="#ffed00"/><path id="D" d="M37,22.27v5.4c0,.89.13,3.14-1.28,3.74-1.81.76-3.13.51-5,.54H24.54V18h6.24c1.83,0,3.14-.22,4.95.55C37.14,19.13,37,21.38,37,22.27Zm.7,17.65c3.78,0,7.91.32,10.62-1s3.21-4.78,3.21-6.58V17.67c0-1.81-.48-5.27-3.21-6.58s-6.83-1-10.62-1H10V39.93H37.71" fill-rule="evenodd" fill="#ffed00"/></g><rect x="10" y="46.62" width="180" height="1.82" fill="#ffed00" transform="translate(0, 0.059499999999999886), scale(1)"/><path fill="#ffed00" d="M12.851239669421,64.28813459268q0.035419126328217,1.0448642266824,0.34533648170012,1.6558441558442t1.0714285714286,0.61097992916175t1.1599763872491-0.43388429752066t0.41617473435655-1.5850059031877q0.017709563164109-0.38961038961039,0.017709563164109-1.0625737898465l0-7.8453364817001l2.7804014167651,0l0,7.8630460448642q0,1.6469893742621-0.30106257378985,2.4262101534829q-0.54899645808737,1.3990554899646-1.5584415584416,2.0188902007084t-2.603305785124,0.6198347107438q-1.0448642266824,0-1.8860684769776-0.30106257378985t-1.4876033057851-1.2927981109799t-0.64639905548996-2.6741440377804l2.6918536009445,0z M29.391971664699,67.776918536009q0.053128689492326,0.53128689492326,0.070838252656434,0.65525383707202l-2.5501770956316,0l-0.088547815820543-1.1865407319953q-0.42502951593861,0.56670602125148-0.77922077922078,0.83234946871311q-0.79693034238489,0.58441558441558-1.7798110979929,0.58441558441558t-1.6912632821724-0.35419126328217q-1.5761511216057-0.79693034238489-1.6469893742621-2.603305785124q-0.017709563164109-0.44273907910272-0.017709563164109-0.65525383707202l0-5.5608028335301l2.6564344746163,0l0,5.3305785123967q0,0.88547815820543,0.14167650531287,1.2396694214876q0.31877213695396,0.72609208972845,1.3547815820543,0.72609208972845t1.3724911452184-0.83234946871311q0.2125147579693-0.49586776859504,0.2125147579693-1.9480519480519l0-4.5159386068477l2.6918536009445,0l0,5.8972845336482q0.053128689492326,2.1782762691854,0.053128689492326,2.1959858323495l0,0.19480519480519z M34.793388429752,66.129929161747q0.35419126328217,0.33648170011806,1.0271546635183,0.33648170011806q1.133412042503,0,1.5938606847698-1.133412042503q0.23022432113341-0.56670602125148,0.23022432113341-1.5407319952774q0-2.603305785124-1.788665879575-2.603305785124q-0.74380165289256,0-1.2750885478158,0.6198347107438t-0.53128689492326,2.116292798111t0.74380165289256,2.2048406139315z M40.177095631641,68.343624557261q0,3.6127508854782-4.2857142857143,3.6127508854782q-1.6646989374262,0-2.4173553719008-0.35419126328217t-1.1953955135773-0.9297520661157t-0.49586776859504-1.5850059031877l2.5147579693034,0q0.088547815820543,0.47815820543093,0.24793388429752,0.70838252656434q0.4073199527745,0.53128689492326,1.1599763872491,0.53128689492326t1.1953955135773-0.28335301062574q0.6198347107438-0.38961038961039,0.67296340023613-1.6115702479339q0.035419126328217-0.70838252656434,0.035419126328217-1.3990554899646q-0.83234946871311,1.0625737898465-1.8772136953955,1.1865407319953q-0.31877213695396,0.035419126328217-0.53128689492326,0.035419126328217q-1.8240850059032,0-2.7981109799292-1.310507674144t-0.97402597402597-3.1080283353011t1.0005903187721-3.099173553719t2.8246753246753-1.301652892562q1.0625737898465,0,1.7532467532468,0.49586776859504q0.30106257378985,0.19480519480519,0.46930342384888,0.41617473435655t0.27449822904368,0.36304604486423l0.088547815820543-1.1865407319953l2.4616292798111,0q-0.12396694214876,1.2396694214876-0.12396694214876,2.2136953955136l0,6.6056670602125z M47.721369539551,62.977626918536q0-1.1688311688312-0.67296340023613-1.7355371900826q-0.31877213695396-0.26564344746163-0.814639905549-0.26564344746163q-0.88547815820543,0-1.301652892562,0.61097992916175t-0.45159386068477,1.3902007083825l3.2408500590319,0z M44.391971664699,64.624616292798q0,0.90318772136954,0.20365997638725,1.3547815820543t0.56670602125148,0.74380165289256t0.95631641086187,0.29220779220779t1.0271546635183-0.24793388429752t0.62868949232586-0.99173553719008l2.3907910271547,0q-0.070838252656434,0.58441558441558-0.20365997638725,1.0005903187721t-0.64639905548996,0.94746162927981q-1.0094451003542,1.0448642266824-3.1345926800472,1.0448642266824q-1.310507674144,0-2.3730814639906-0.53128689492326q-0.42502951593861-0.2125147579693-0.77922077922078-0.58441558441558q-1.1511216056671-1.1865407319953-1.1511216056671-3.4887839433294q0-2.9574970484061,1.8595041322314-4.232585596222q1.0802833530106-0.74380165289256,2.6652892561983-0.74380165289256t2.7981109799292,1.1865407319953t1.2131050767414,3.595041322314q0,0.37190082644628-0.017709563164109,0.65525383707202l-6.0035419126328,0z M52.166469893743,60.905608028335q0-0.76151121605667-0.053128689492326-1.4521841794569l2.5147579693034,0l0.070838252656434,1.3459268004723q0.51357733175915-0.92089728453365,1.6646989374262-1.3636363636364q0.51357733175915-0.19480519480519,1.2042502951594-0.19480519480519q1.1511216056671,0,2.0011806375443,0.64639905548996t0.97402597402597,1.956906729634q0.035419126328217,0.49586776859504,0.035419126328217,1.7532467532468l0,4.8347107438017l-2.6741440377804,0l0-5.5608028335301q0-0.69067296340024-0.14167650531287-0.99173553719008q-0.37190082644628-0.74380165289256-1.2750885478158-0.74380165289256q-1.2396694214876,0-1.5761511216057,1.2042502951594q-0.10625737898465,0.33648170011806-0.10625737898465,0.85005903187721l0,5.2420306965762l-2.6387249114522,0l0-7.3494687131051l0-0.17709563164109z M65.059031877214,64.173022432113q0,1.142266824085,0.43388429752066,1.9391971664699t1.3724911452184,0.79693034238489q0.56670602125148,0,1.0094451003542-0.30106257378985q1.0802833530106-0.72609208972845,1.0802833530106-2.8158205430933q0-1.3282172373081-0.5224321133412-2.0188902007084t-1.301652892562-0.69067296340024t-1.1688311688312,0.34533648170012t-0.64639905548996,0.97402597402597t-0.25678866587957,1.7709563164109z M68.866587957497,60.586835891381l0-4.9409681227863l2.6387249114522,0l0,11.33412042503q0,0.95631641086187,0.070838252656434,1.4521841794569l-2.6564344746163,0l-0.070838252656434-1.2927981109799q-0.14167650531287,0.24793388429752-0.31877213695396,0.49586776859504t-0.73494687131051,0.61097992916175t-1.5850059031877,0.36304604486423q-1.8063754427391,0-2.8069657615112-1.1688311688312t-1.0005903187721-3.3116883116883t1.0802833530106-3.4533648170012t2.7981109799292-1.310507674144t2.5855962219599,1.2219598583235z M73.400236127509,62.747402597403l4.3919716646989,0l0,2.0011806375443l-4.3919716646989,0l0-2.0011806375443z M79.82880755608,55.62815820543l8.5714285714286,0l0,2.0897284533648l-5.8264462809917,0l0,3.0460448642267l5.4545454545455,0l0,2.0897284533648l-5.4545454545455,0l0,3.4533648170012l6.0212514757969,0l0,2.125147579693l-8.7662337662338,0l0-12.804014167651z M90.489964580874,59.471133412042l2.6210153482881,0l0,8.961038961039l-2.6210153482881,0l0-8.961038961039z M90.401416765053,55.645867768595l2.7981109799292,0l0,2.28453364817l-2.7981109799292,0l0-2.28453364817z M95.448642266824,60.905608028335q0-0.76151121605667-0.053128689492326-1.4521841794569l2.5147579693034,0l0.070838252656434,1.3459268004723q0.51357733175915-0.92089728453365,1.6646989374262-1.3636363636364q0.51357733175915-0.19480519480519,1.2042502951594-0.19480519480519q1.1511216056671,0,2.0011806375443,0.64639905548996t0.97402597402597,1.956906729634q0.035419126328217,0.49586776859504,0.035419126328217,1.7532467532468l0,4.8347107438017l-2.6741440377804,0l0-5.5608028335301q0-0.69067296340024-0.14167650531287-0.99173553719008q-0.37190082644628-0.74380165289256-1.2750885478158-0.74380165289256q-1.2396694214876,0-1.5761511216057,1.2042502951594q-0.10625737898465,0.33648170011806-0.10625737898465,0.85005903187721l0,5.2420306965762l-2.6387249114522,0l0-7.3494687131051l0-0.17709563164109z M110.71428571429,61.91505312869q-0.10625737898465-1.0625737898465-1.2750885478158-1.0625737898465q-0.53128689492326,0-0.88547815820543,0.23907910271547t-0.35419126328217,0.67296340023613t0.31877213695396,0.59327036599764t0.90318772136954,0.31877213695396l1.6115702479339,0.44273907910272q2.3907910271547,0.65525383707202,2.3907910271547,2.4970484061393q0,1.2573789846517-1.0802833530106,2.1694214876033t-3.0548996458087,0.91204250295159t-3.0371900826446-1.0979929161747q-0.44273907910272-0.46044864226682-0.54014167650531-0.94746162927981t-0.11511216056671-0.80578512396694l2.4616292798111,0q0.035419126328217,0.51357733175915,0.28335301062574,0.76151121605667q0.46044864226682,0.46044864226682,1.1865407319953,0.46044864226682t1.0625737898465-0.32762691853601t0.33648170011806-0.68181818181818t-0.23907910271547-0.60212514757969t-1.0005903187721-0.46044864226682l-1.629279811098-0.44273907910272q-0.88547815820543-0.23022432113341-1.3282172373081-0.56670602125148q-0.93860684769776-0.72609208972845-0.93860684769776-1.9657615112161t1.0891381345927-1.9923258559622t2.8246753246753-0.75265643447462q2.28453364817,0,3.099173553719,1.469893742621q0.26564344746163,0.49586776859504,0.30106257378985,1.1688311688312l-2.3907910271547,0z M120.11806375443,64.217296340024l-0.53128689492326-0.035419126328217l-0.17709563164109,0t-0.6198347107438,0.070838252656434q-1.5584415584416,0.24793388429752-1.5584415584416,1.4167650531287q0,0.49586776859504,0.24793388429752,0.76151121605667q0.44273907910272,0.51357733175915,1.0537190082645,0.51357733175915t1.0891381345927-0.51357733175915q0.35419126328217-0.42502951593861,0.42502951593861-0.95631641086187t0.070838252656434-1.2573789846517z M122.61511216057,66.165348288076q0,1.2927981109799,0.2125147579693,2.2668240850059l-2.3730814639906,0q-0.088547815820543-0.51357733175915-0.088547815820543-1.2219598583235q-1.0094451003542,1.4344746162928-2.6741440377804,1.4344746162928q-2.2668240850059,0-2.8335301062574-1.629279811098q-0.17709563164109-0.51357733175915-0.17709563164109-1.1688311688312t0.31877213695396-1.2396694214876q1.0448642266824-1.9126328217237,4.3565525383707-1.9126328217237l0.76151121605667,0q0-0.83234946871311-0.10625737898465-1.133412042503q-0.28335301062574-0.79693034238489-1.1688311688312-0.79693034238489q-0.65525383707202,0-1.0094451003542,0.49586776859504q-0.19480519480519,0.26564344746163-0.19480519480519,0.79693034238489l-2.5678866587958,0q0-1.3990554899646,1.0182998819362-2.116292798111t2.5678866587958-0.7172373081464t2.4704840613932,0.49586776859504t1.1776859504132,1.1776859504132t0.27449822904368,1.0360094451004t0.017709563164109,0.63754427390791z M128.62750885478,66.554958677686q0.23907910271547,0.088547815820543,0.7172373081464,0.088547815820543t0.85005903187721-0.053128689492326l0,1.7178276269185q-1.0271546635183,0.28335301062574-2.0188902007084,0.28335301062574q-1.7178276269185,0-2.3199527744982-0.93860684769776q-0.33648170011806-0.53128689492326-0.33648170011806-1.469893742621l0-4.9055489964581l-1.7178276269185,0l0-1.7355371900826l1.7178276269185,0l0-1.7532467532468l2.603305785124-0.95631641086187l0,2.7095631641086l2.125147579693,0l0,1.7355371900826l-2.125147579693,0l0,4.0377804014168q0,0.70838252656434,0.13282172373081,0.9297520661157t0.37190082644628,0.3099173553719z M131.23966942149,66.129929161747l4.5336481700118-4.887839433294l-4.409681227863,0l0-1.7532467532468l7.331759149941,0l0,2.2491145218418l-4.5336481700118,4.887839433294l4.7107438016529,0l0,1.8063754427391l-7.6328217237308,0l0-2.3022432113341z M140.30696576151,62.747402597403l4.3919716646989,0l0,2.0011806375443l-4.3919716646989,0l0-2.0011806375443z M149.48051948052,57.753305785124l-3.8075560802834,0l0-2.125147579693l10.377804014168,0l0,2.125147579693l-3.8075560802834,0l0,10.678866587957l-2.7626918536009,0l0-10.678866587957z M160.17709563164,62.977626918536q0-1.1688311688312-0.67296340023613-1.7355371900826q-0.31877213695396-0.26564344746163-0.814639905549-0.26564344746163q-0.88547815820543,0-1.301652892562,0.61097992916175t-0.45159386068477,1.3902007083825l3.2408500590319,0z M156.84769775679,64.624616292798q0,0.90318772136954,0.20365997638725,1.3547815820543t0.56670602125148,0.74380165289256t0.95631641086187,0.29220779220779t1.0271546635183-0.24793388429752t0.62868949232586-0.99173553719008l2.3907910271547,0q-0.070838252656434,0.58441558441558-0.20365997638725,1.0005903187721t-0.64639905548996,0.94746162927981q-1.0094451003542,1.0448642266824-3.1345926800472,1.0448642266824q-1.310507674144,0-2.3730814639906-0.53128689492326q-0.42502951593861-0.2125147579693-0.77922077922078-0.58441558441558q-1.1511216056671-1.1865407319953-1.1511216056671-3.4887839433294q0-2.9574970484061,1.8595041322314-4.232585596222q1.0802833530106-0.74380165289256,2.6652892561983-0.74380165289256t2.7981109799292,1.1865407319953t1.2131050767414,3.595041322314q0,0.37190082644628-0.017709563164109,0.65525383707202l-6.0035419126328,0z M169.61629279811,64.217296340024l-0.53128689492326-0.035419126328217l-0.17709563164109,0t-0.6198347107438,0.070838252656434q-1.5584415584416,0.24793388429752-1.5584415584416,1.4167650531287q0,0.49586776859504,0.24793388429752,0.76151121605667q0.44273907910272,0.51357733175915,1.0537190082645,0.51357733175915t1.0891381345927-0.51357733175915q0.35419126328217-0.42502951593861,0.42502951593861-0.95631641086187t0.070838252656434-1.2573789846517z M172.11334120425,66.165348288076q0,1.2927981109799,0.2125147579693,2.2668240850059l-2.3730814639906,0q-0.088547815820543-0.51357733175915-0.088547815820543-1.2219598583235q-1.0094451003542,1.4344746162928-2.6741440377804,1.4344746162928q-2.2668240850059,0-2.8335301062574-1.629279811098q-0.17709563164109-0.51357733175915-0.17709563164109-1.1688311688312t0.31877213695396-1.2396694214876q1.0448642266824-1.9126328217237,4.3565525383707-1.9126328217237l0.76151121605667,0q0-0.83234946871311-0.10625737898465-1.133412042503q-0.28335301062574-0.79693034238489-1.1688311688312-0.79693034238489q-0.65525383707202,0-1.0094451003542,0.49586776859504q-0.19480519480519,0.26564344746163-0.19480519480519,0.79693034238489l-2.5678866587958,0q0-1.3990554899646,1.0182998819362-2.116292798111t2.5678866587958-0.7172373081464t2.4704840613932,0.49586776859504t1.1776859504132,1.1776859504132t0.27449822904368,1.0360094451004t0.017709563164109,0.63754427390791z M182.5974025974,60.976446280992q0.88547815820543-1.6646989374262,2.8689492325856-1.6646989374262q1.1511216056671,0,1.9657615112161,0.58441558441558q0.77922077922078,0.56670602125148,1.0271546635183,1.4876033057851q0.17709563164109,0.65525383707202,0.17709563164109,1.3813459268005l0,0.6198347107438l0,5.047225501771l-2.6387249114522,0l0-5.2597402597403q0-0.90318772136954-0.19480519480519-1.2927981109799q-0.37190082644628-0.72609208972845-1.310507674144-0.72609208972845q-1.4876033057851,0-1.5761511216057,1.788665879575q-0.035419126328217,0.51357733175915-0.035419126328217,1.0094451003542l0,4.4805194805195l-2.6387249114522,0l0-5.3128689492326q0-0.83234946871311-0.15938606847698-1.1865407319953q-0.38961038961039-0.77922077922078-1.310507674144-0.77922077922078q-1.0802833530106,0-1.4521841794569,0.77922077922078q-0.19480519480519,0.42502951593861-0.19480519480519,1.2396694214876l0,5.2597402597403l-2.6387249114522,0l0-7.2609208972845q0-0.6198347107438-0.088547815820543-1.6824085005903l2.5324675324675,0l0.088547815820543,1.1511216056671q0.4073199527745-0.54899645808737,0.76151121605667-0.77922077922078q0.86776859504132-0.56670602125148,1.8063754427391-0.56670602125148q0.95631641086187,0,1.469893742621,0.20365997638725t0.83234946871311,0.46930342384888q0.42502951593861,0.37190082644628,0.70838252656434,1.0094451003542z M13.205430932704,74.619893742621l3.3471074380165,10.04132231405l3.3648170011806-10.04132231405l2.7095631641086,0l-4.7107438016529,12.750885478158l-2.9929161747344,0l-4.7107438016529-12.750885478158l2.9929161747344,0z M27.691853600945,81.916233766234q0-1.1688311688312-0.67296340023613-1.7355371900826q-0.31877213695396-0.26564344746163-0.814639905549-0.26564344746163q-0.88547815820543,0-1.301652892562,0.61097992916175t-0.45159386068477,1.3902007083825l3.2408500590319,0z M24.362455726092,83.563223140496q0,0.90318772136954,0.20365997638725,1.3547815820543t0.56670602125148,0.74380165289256t0.95631641086187,0.29220779220779t1.0271546635183-0.24793388429752t0.62868949232586-0.99173553719008l2.3907910271547,0q-0.070838252656434,0.58441558441558-0.20365997638725,1.0005903187721t-0.64639905548996,0.94746162927981q-1.0094451003542,1.0448642266824-3.1345926800472,1.0448642266824q-1.310507674144,0-2.3730814639906-0.53128689492326q-0.42502951593861-0.2125147579693-0.77922077922078-0.58441558441558q-1.1511216056671-1.1865407319953-1.1511216056671-3.4887839433294q0-2.9574970484061,1.8595041322314-4.232585596222q1.0802833530106-0.74380165289256,2.6652892561983-0.74380165289256t2.7981109799292,1.1865407319953t1.2131050767414,3.595041322314q0,0.37190082644628-0.017709563164109,0.65525383707202l-6.0035419126328,0z M32.101534828808,80.623435655254q0-0.86776859504132-0.12396694214876-2.2314049586777l2.4616292798111,0l0.053128689492326,1.7178276269185q0.33648170011806-0.77922077922078,0.77922077922078-1.133412042503q0.76151121605667-0.60212514757969,1.9834710743802-0.60212514757969l0.28335301062574,0l0,2.3553719008264q-0.31877213695396-0.035419126328217-0.6198347107438-0.035419126328217q-1.2573789846517,0.017709563164109-1.788665879575,0.63754427390791q-0.28335301062574,0.33648170011806-0.34533648170012,0.77036599763872t-0.06198347107438,0.85891381345927l0,4.409681227863l-2.6210153482881,0l0-6.7473435655254z M40.708382526564,78.427449822904l1.6469893742621,6.7473435655254l1.8949232585596-6.7473435655254l2.8866587957497,0l1.8772136953955,6.7473435655254l1.7532467532468-6.7473435655254l2.603305785124,0l-3.0637544273908,8.9433293978749l-2.8512396694215,0l-1.8417945690673-6.6233766233766l-1.8772136953955,6.6233766233766l-2.8866587957497,0l-2.9220779220779-8.9433293978749l2.7804014167651,0z M59.409681227863,83.155903187721l-0.53128689492326-0.035419126328217l-0.17709563164109,0t-0.6198347107438,0.070838252656434q-1.5584415584416,0.24793388429752-1.5584415584416,1.4167650531287q0,0.49586776859504,0.24793388429752,0.76151121605667q0.44273907910272,0.51357733175915,1.0537190082645,0.51357733175915t1.0891381345927-0.51357733175915q0.35419126328217-0.42502951593861,0.42502951593861-0.95631641086187t0.070838252656434-1.2573789846517z M61.906729634002,85.103955135773q0,1.2927981109799,0.2125147579693,2.2668240850059l-2.3730814639906,0q-0.088547815820543-0.51357733175915-0.088547815820543-1.2219598583235q-1.0094451003542,1.4344746162928-2.6741440377804,1.4344746162928q-2.2668240850059,0-2.8335301062574-1.629279811098q-0.17709563164109-0.51357733175915-0.17709563164109-1.1688311688312t0.31877213695396-1.2396694214876q1.0448642266824-1.9126328217237,4.3565525383707-1.9126328217237l0.76151121605667,0q0-0.83234946871311-0.10625737898465-1.133412042503q-0.28335301062574-0.79693034238489-1.1688311688312-0.79693034238489q-0.65525383707202,0-1.0094451003542,0.49586776859504q-0.19480519480519,0.26564344746163-0.19480519480519,0.79693034238489l-2.5678866587958,0q0-1.3990554899646,1.0182998819362-2.116292798111t2.5678866587958-0.7172373081464t2.4704840613932,0.49586776859504t1.1776859504132,1.1776859504132t0.27449822904368,1.0360094451004t0.017709563164109,0.63754427390791z M64.226682408501,74.566765053128l2.6210153482881,0l0,12.804014167651l-2.6210153482881,0l0-12.804014167651z M72.842384887839,85.493565525384q0.23907910271547,0.088547815820543,0.7172373081464,0.088547815820543t0.85005903187721-0.053128689492326l0,1.7178276269185q-1.0271546635183,0.28335301062574-2.0188902007084,0.28335301062574q-1.7178276269185,0-2.3199527744982-0.93860684769776q-0.33648170011806-0.53128689492326-0.33648170011806-1.469893742621l0-4.9055489964581l-1.7178276269185,0l0-1.7355371900826l1.7178276269185,0l0-1.7532467532468l2.603305785124-0.95631641086187l0,2.7095631641086l2.125147579693,0l0,1.7355371900826l-2.125147579693,0l0,4.0377804014168q0,0.70838252656434,0.13282172373081,0.9297520661157t0.37190082644628,0.3099173553719z M84.167650531287,86.715525383707q0.053128689492326,0.53128689492326,0.070838252656434,0.65525383707202l-2.5501770956316,0l-0.088547815820543-1.1865407319953q-0.42502951593861,0.56670602125148-0.77922077922078,0.83234946871311q-0.79693034238489,0.58441558441558-1.7798110979929,0.58441558441558t-1.6912632821724-0.35419126328217q-1.5761511216057-0.79693034238489-1.6469893742621-2.603305785124q-0.017709563164109-0.44273907910272-0.017709563164109-0.65525383707202l0-5.5608028335301l2.6564344746163,0l0,5.3305785123967q0,0.88547815820543,0.14167650531287,1.2396694214876q0.31877213695396,0.72609208972845,1.3547815820543,0.72609208972845t1.3724911452184-0.83234946871311q0.2125147579693-0.49586776859504,0.2125147579693-1.9480519480519l0-4.5159386068477l2.6918536009445,0l0,5.8972845336482q0.053128689492326,2.1782762691854,0.053128689492326,2.1959858323495l0,0.19480519480519z M86.629279811098,79.844214876033q0-0.76151121605667-0.053128689492326-1.4521841794569l2.5147579693034,0l0.070838252656434,1.3459268004723q0.51357733175915-0.92089728453365,1.6646989374262-1.3636363636364q0.51357733175915-0.19480519480519,1.2042502951594-0.19480519480519q1.1511216056671,0,2.0011806375443,0.64639905548996t0.97402597402597,1.956906729634q0.035419126328217,0.49586776859504,0.035419126328217,1.7532467532468l0,4.8347107438017l-2.6741440377804,0l0-5.5608028335301q0-0.69067296340024-0.14167650531287-0.99173553719008q-0.37190082644628-0.74380165289256-1.2750885478158-0.74380165289256q-1.2396694214876,0-1.5761511216057,1.2042502951594q-0.10625737898465,0.33648170011806-0.10625737898465,0.85005903187721l0,5.2420306965762l-2.6387249114522,0l0-7.3494687131051l0-0.17709563164109z M100.38961038961,85.068536009445q0.35419126328217,0.33648170011806,1.0271546635183,0.33648170011806q1.133412042503,0,1.5938606847698-1.133412042503q0.23022432113341-0.56670602125148,0.23022432113341-1.5407319952774q0-2.603305785124-1.788665879575-2.603305785124q-0.74380165289256,0-1.2750885478158,0.6198347107438t-0.53128689492326,2.116292798111t0.74380165289256,2.2048406139315z M105.7733175915,87.282231404959q0,3.6127508854782-4.2857142857143,3.6127508854782q-1.6646989374262,0-2.4173553719008-0.35419126328217t-1.1953955135773-0.9297520661157t-0.49586776859504-1.5850059031877l2.5147579693034,0q0.088547815820543,0.47815820543093,0.24793388429752,0.70838252656434q0.4073199527745,0.53128689492326,1.1599763872491,0.53128689492326t1.1953955135773-0.28335301062574q0.6198347107438-0.38961038961039,0.67296340023613-1.6115702479339q0.035419126328217-0.70838252656434,0.035419126328217-1.3990554899646q-0.83234946871311,1.0625737898465-1.8772136953955,1.1865407319953q-0.31877213695396,0.035419126328217-0.53128689492326,0.035419126328217q-1.8240850059032,0-2.7981109799292-1.310507674144t-0.97402597402597-3.1080283353011t1.0005903187721-3.099173553719t2.8246753246753-1.301652892562q1.0625737898465,0,1.7532467532468,0.49586776859504q0.30106257378985,0.19480519480519,0.46930342384888,0.41617473435655t0.27449822904368,0.36304604486423l0.088547815820543-1.1865407319953l2.4616292798111,0q-0.12396694214876,1.2396694214876-0.12396694214876,2.2136953955136l0,6.6056670602125z M112.71546635183,80.853659976387q-0.10625737898465-1.0625737898465-1.2750885478158-1.0625737898465q-0.53128689492326,0-0.88547815820543,0.23907910271547t-0.35419126328217,0.67296340023613t0.31877213695396,0.59327036599764t0.90318772136954,0.31877213695396l1.6115702479339,0.44273907910272q2.3907910271547,0.65525383707202,2.3907910271547,2.4970484061393q0,1.2573789846517-1.0802833530106,2.1694214876033t-3.0548996458087,0.91204250295159t-3.0371900826446-1.0979929161747q-0.44273907910272-0.46044864226682-0.54014167650531-0.94746162927981t-0.11511216056671-0.80578512396694l2.4616292798111,0q0.035419126328217,0.51357733175915,0.28335301062574,0.76151121605667q0.46044864226682,0.46044864226682,1.1865407319953,0.46044864226682t1.0625737898465-0.32762691853601t0.33648170011806-0.68181818181818t-0.23907910271547-0.60212514757969t-1.0005903187721-0.46044864226682l-1.629279811098-0.44273907910272q-0.88547815820543-0.23022432113341-1.3282172373081-0.56670602125148q-0.93860684769776-0.72609208972845-0.93860684769776-1.9657615112161t1.0891381345927-1.9923258559622t2.8246753246753-0.75265643447462q2.28453364817,0,3.099173553719,1.469893742621q0.26564344746163,0.49586776859504,0.30106257378985,1.1688311688312l-2.3907910271547,0z M121.57024793388,80.853659976387q-0.10625737898465-1.0625737898465-1.2750885478158-1.0625737898465q-0.53128689492326,0-0.88547815820543,0.23907910271547t-0.35419126328217,0.67296340023613t0.31877213695396,0.59327036599764t0.90318772136954,0.31877213695396l1.6115702479339,0.44273907910272q2.3907910271547,0.65525383707202,2.3907910271547,2.4970484061393q0,1.2573789846517-1.0802833530106,2.1694214876033t-3.0548996458087,0.91204250295159t-3.0371900826446-1.0979929161747q-0.44273907910272-0.46044864226682-0.54014167650531-0.94746162927981t-0.11511216056671-0.80578512396694l2.4616292798111,0q0.035419126328217,0.51357733175915,0.28335301062574,0.76151121605667q0.46044864226682,0.46044864226682,1.1865407319953,0.46044864226682t1.0625737898465-0.32762691853601t0.33648170011806-0.68181818181818t-0.23907910271547-0.60212514757969t-1.0005903187721-0.46044864226682l-1.629279811098-0.44273907910272q-0.88547815820543-0.23022432113341-1.3282172373081-0.56670602125148q-0.93860684769776-0.72609208972845-0.93860684769776-1.9657615112161t1.0891381345927-1.9923258559622t2.8246753246753-0.75265643447462q2.28453364817,0,3.099173553719,1.469893742621q0.26564344746163,0.49586776859504,0.30106257378985,1.1688311688312l-2.3907910271547,0z M127.87485242031,78.427449822904l1.9657615112161,6.198347107438l2.0011806375443-6.198347107438l2.603305785124,0l-3.3825265643447,8.7839433293979l-1.0802833530106,3.5596221959858l-2.6387249114522,0l1.133412042503-3.3648170011806l-3.4356552538371-8.9787485242031l2.8335301062574,0z M140.27154663518,80.853659976387q-0.10625737898465-1.0625737898465-1.2750885478158-1.0625737898465q-0.53128689492326,0-0.88547815820543,0.23907910271547t-0.35419126328217,0.67296340023613t0.31877213695396,0.59327036599764t0.90318772136954,0.31877213695396l1.6115702479339,0.44273907910272q2.3907910271547,0.65525383707202,2.3907910271547,2.4970484061393q0,1.2573789846517-1.0802833530106,2.1694214876033t-3.0548996458087,0.91204250295159t-3.0371900826446-1.0979929161747q-0.44273907910272-0.46044864226682-0.54014167650531-0.94746162927981t-0.11511216056671-0.80578512396694l2.4616292798111,0q0.035419126328217,0.51357733175915,0.28335301062574,0.76151121605667q0.46044864226682,0.46044864226682,1.1865407319953,0.46044864226682t1.0625737898465-0.32762691853601t0.33648170011806-0.68181818181818t-0.23907910271547-0.60212514757969t-1.0005903187721-0.46044864226682l-1.629279811098-0.44273907910272q-0.88547815820543-0.23022432113341-1.3282172373081-0.56670602125148q-0.93860684769776-0.72609208972845-0.93860684769776-1.9657615112161t1.0891381345927-1.9923258559622t2.8246753246753-0.75265643447462q2.28453364817,0,3.099173553719,1.469893742621q0.26564344746163,0.49586776859504,0.30106257378985,1.1688311688312l-2.3907910271547,0z M148.33825265643,85.493565525384q0.23907910271547,0.088547815820543,0.7172373081464,0.088547815820543t0.85005903187721-0.053128689492326l0,1.7178276269185q-1.0271546635183,0.28335301062574-2.0188902007084,0.28335301062574q-1.7178276269185,0-2.3199527744982-0.93860684769776q-0.33648170011806-0.53128689492326-0.33648170011806-1.469893742621l0-4.9055489964581l-1.7178276269185,0l0-1.7355371900826l1.7178276269185,0l0-1.7532467532468l2.603305785124-0.95631641086187l0,2.7095631641086l2.125147579693,0l0,1.7355371900826l-2.125147579693,0l0,4.0377804014168q0,0.70838252656434,0.13282172373081,0.9297520661157t0.37190082644628,0.3099173553719z M156.61747343566,81.916233766234q0-1.1688311688312-0.67296340023613-1.7355371900826q-0.31877213695396-0.26564344746163-0.814639905549-0.26564344746163q-0.88547815820543,0-1.301652892562,0.61097992916175t-0.45159386068477,1.3902007083825l3.2408500590319,0z M153.2880755608,83.563223140496q0,0.90318772136954,0.20365997638725,1.3547815820543t0.56670602125148,0.74380165289256t0.95631641086187,0.29220779220779t1.0271546635183-0.24793388429752t0.62868949232586-0.99173553719008l2.3907910271547,0q-0.070838252656434,0.58441558441558-0.20365997638725,1.0005903187721t-0.64639905548996,0.94746162927981q-1.0094451003542,1.0448642266824-3.1345926800472,1.0448642266824q-1.310507674144,0-2.3730814639906-0.53128689492326q-0.42502951593861-0.2125147579693-0.77922077922078-0.58441558441558q-1.1511216056671-1.1865407319953-1.1511216056671-3.4887839433294q0-2.9574970484061,1.8595041322314-4.232585596222q1.0802833530106-0.74380165289256,2.6652892561983-0.74380165289256t2.7981109799292,1.1865407319953t1.2131050767414,3.595041322314q0,0.37190082644628-0.017709563164109,0.65525383707202l-6.0035419126328,0z M169.19126328217,79.91505312869q0.88547815820543-1.6646989374262,2.8689492325856-1.6646989374262q1.1511216056671,0,1.9657615112161,0.58441558441558q0.77922077922078,0.56670602125148,1.0271546635183,1.4876033057851q0.17709563164109,0.65525383707202,0.17709563164109,1.3813459268005l0,0.6198347107438l0,5.047225501771l-2.6387249114522,0l0-5.2597402597403q0-0.90318772136954-0.19480519480519-1.2927981109799q-0.37190082644628-0.72609208972845-1.310507674144-0.72609208972845q-1.4876033057851,0-1.5761511216057,1.788665879575q-0.035419126328217,0.51357733175915-0.035419126328217,1.0094451003542l0,4.4805194805195l-2.6387249114522,0l0-5.3128689492326q0-0.83234946871311-0.15938606847698-1.1865407319953q-0.38961038961039-0.77922077922078-1.310507674144-0.77922077922078q-1.0802833530106,0-1.4521841794569,0.77922077922078q-0.19480519480519,0.42502951593861-0.19480519480519,1.2396694214876l0,5.2597402597403l-2.6387249114522,0l0-7.2609208972845q0-0.6198347107438-0.088547815820543-1.6824085005903l2.5324675324675,0l0.088547815820543,1.1511216056671q0.4073199527745-0.54899645808737,0.76151121605667-0.77922077922078q0.86776859504132-0.56670602125148,1.8063754427391-0.56670602125148q0.95631641086187,0,1.469893742621,0.20365997638725t0.83234946871311,0.46930342384888q0.42502951593861,0.37190082644628,0.70838252656434,1.0094451003542z" transform="translate(0, 0.059499999999999886), scale(1)"/></svg>